{
  "accessors": [
    {
      "bufferView": 2,
      "componentType": 5126,
      "count": 16700,
      "max": [
        0.34731999039649963,
        0.22834399342536926,
        1.6220999956130981
      ],
      "min": [
        -0.46659699082374573,
        -0.17667199671268463,
        0.50186401605606079
      ],
      "type": "VEC3"
    },
    {
      "bufferView": 2,
      "byteOffset": 200400,
      "componentType": 5126,
      "count": 16700,
      "max": [
        0.99993956089019775,
        0.99990642070770264,
        0.99985498189926147
      ],
      "min": [
        -0.99959093332290649,
        -0.99999511241912842,
        -0.99993979930877686
      ],
      "type": "VEC3"
    },
    {
      "bufferView": 3,
      "componentType": 5126,
      "count": 16700,
      "max": [
        0.9999767541885376,
        0.99983566999435425,
        0.99995249509811401,
        1
      ],
      "min": [
        -0.99950402975082397,
        -0.99994355440139771,
        -0.99981045722961426,
        -1
      ],
      "type": "VEC4"
    },
    {
      "bufferView": 1,
      "componentType": 5126,
      "count": 16700,
      "max": [
        0.99000000953674316,
        0.99000000953674316
      ],
      "min": [
        0.0099999997764825821,
        0.021831000223755836
      ],
      "type": "VEC2"
    },
    {
      "bufferView": 0,
      "componentType": 5125,
      "count": 93288,
      "max": [
        16699
      ],
      "min": [
        0
      ],
      "type": "SCALAR"
    },
    {
      "bufferView": 2,
      "byteOffset": 400800,
      "componentType": 5126,
      "count": 580,
      "max": [
        0.070843003690242767,
        -0.047299999743700027,
        1.5316799879074097
      ],
      "min": [
        -0.02247999981045723,
        -0.08454500138759613,
        1.5021699666976929
      ],
      "type": "VEC3"
    },
    {
      "bufferView": 2,
      "byteOffset": 407760,
      "componentType": 5126,
      "count": 580,
      "max": [
        0.9952845573425293,
        0.99104392528533936,
        0.9956621527671814
      ],
      "min": [
        -0.9952845573425293,
        -0.9910857081413269,
        -0.9956621527671814
      ],
      "type": "VEC3"
    },
    {
      "bufferView": 1,
      "byteOffset": 133600,
      "componentType": 5126,
      "count": 580,
      "max": [
        0.76125001907348633,
        0.76125001907348633
      ],
      "min": [
        0.23874999582767487,
        0.23874999582767487
      ],
      "type": "VEC2"
    },
    {
      "bufferView": 0,
      "byteOffset": 373152,
      "componentType": 5125,
      "count": 3456,
      "max": [
        579
      ],
      "min": [
        0
      ],
      "type": "SCALAR"
    },
    {
      "bufferView": 2,
      "byteOffset": 414720,
      "componentType": 5126,
      "count": 12320,
      "max": [
        -0.084982000291347504,
        0.051853001117706299,
        1.3659000396728516
      ],
      "min": [
        -0.63022202253341675,
        -0.12912499904632568,
        0.91797798871994019
      ],
      "type": "VEC3"
    },
    {
      "bufferView": 2,
      "byteOffset": 562560,
      "componentType": 5126,
      "count": 12320,
      "max": [
        0.99976474046707153,
        0.99999374151229858,
        0.99823510646820068
      ],
      "min": [
        -0.99978452920913696,
        -0.99909943342208862,
        -0.9983363151550293
      ],
      "type": "VEC3"
    },
    {
      "bufferView": 3,
      "byteOffset": 267200,
      "componentType": 5126,
      "count": 12320,
      "max": [
        0.99936884641647339,
        0.99735444784164429,
        0.99999380111694336,
        1
      ],
      "min": [
        -0.99979537725448608,
        -0.99863529205322266,
        -0.99985629320144653,
        -1
      ],
      "type": "VEC4"
    },
    {
      "bufferView": 1,
      "byteOffset": 138240,
      "componentType": 5126,
      "count": 12320,
      "max": [
        0.98854798078536987,
        0.99000000953674316
      ],
      "min": [
        0.0099999997764825821,
        0.0099999997764825821
      ],
      "type": "VEC2"
    },
    {
      "bufferView": 0,
      "byteOffset": 386976,
      "componentType": 5125,
      "count": 41397,
      "max": [
        12319
      ],
      "min": [
        0
      ],
      "type": "SCALAR"
    },
    {
      "bufferView": 2,
      "byteOffset": 710400,
      "componentType": 5126,
      "count": 456,
      "max": [
        -0.19919399917125702,
        -0.027806000784039497,
        1.2341699600219727
      ],
      "min": [
        -0.30844798684120178,
        -0.075102001428604126,
        1.1497800350189209
      ],
      "type": "VEC3"
    },
    {
      "bufferView": 2,
      "byteOffset": 715872,
      "componentType": 5126,
      "count": 456,
      "max": [
        0.99537569284439087,
        0.97633177042007446,
        0.99737942218780518
      ],
      "min": [
        -0.99958521127700806,
        -0.97718948125839233,
        -0.9952387809753418
      ],
      "type": "VEC3"
    },
    {
      "bufferView": 1,
      "byteOffset": 236800,
      "componentType": 5126,
      "count": 456,
      "max": [
        0.92441701889038086,
        0.87229299545288086
      ],
      "min": [
        0.14765800535678864,
        0.073693998157978058
      ],
      "type": "VEC2"
    },
    {
      "bufferView": 0,
      "byteOffset": 552564,
      "componentType": 5125,
      "count": 2424,
      "max": [
        455
      ],
      "min": [
        0
      ],
      "type": "SCALAR"
    },
    {
      "bufferView": 2,
      "byteOffset": 721344,
      "componentType": 5126,
      "count": 8642,
      "max": [
        0.13888600468635559,
        0.13150499761104584,
        1.6482199430465698
      ],
      "min": [
        -0.14107300341129303,
        -0.12642200291156769,
        1.043429970741272
      ],
      "type": "VEC3"
    },
    {
      "bufferView": 2,
      "byteOffset": 825048,
      "componentType": 5126,
      "count": 8642,
      "max": [
        0.99986225366592407,
        0.9997590184211731,
        0.99951046705245972
      ],
      "min": [
        -0.99992895126342773,
        -0.99989652633666992,
        -0.99954038858413696
      ],
      "type": "VEC3"
    },
    {
      "bufferView": 3,
      "byteOffset": 464320,
      "componentType": 5126,
      "count": 8642,
      "max": [
        0.99990350008010864,
        0.99949806928634644,
        0.99949467182159424,
        1
      ],
      "min": [
        -0.99992471933364868,
        -0.999248206615448,
        -0.9983336329460144,
        -1
      ],
      "type": "VEC4"
    },
    {
      "bufferView": 1,
      "byteOffset": 240448,
      "componentType": 5126,
      "count": 8642,
      "max": [
        0.95222502946853638,
        0.9921879768371582
      ],
      "min": [
        0.0078119998797774315,
        0.0078119998797774315
      ],
      "type": "VEC2"
    },
    {
      "bufferView": 0,
      "byteOffset": 562260,
      "componentType": 5125,
      "count": 46224,
      "max": [
        8641
      ],
      "min": [
        0
      ],
      "type": "SCALAR"
    },
    {
      "bufferView": 2,
      "byteOffset": 928752,
      "componentType": 5126,
      "count": 9588,
      "max": [
        0.083773002028465271,
        0.143886998295784,
        1.6518299579620361
      ],
      "min": [
        -0.17589199542999268,
        -0.083053998649120331,
        1.0157599449157715
      ],
      "type": "VEC3"
    },
    {
      "bufferView": 2,
      "byteOffset": 1043808,
      "componentType": 5126,
      "count": 9588,
      "max": [
        0.99995911121368408,
        0.99989402294158936,
        0.99998784065246582
      ],
      "min": [
        -0.99998819828033447,
        -0.99996662139892578,
        -0.99996769428253174
      ],
      "type": "VEC3"
    },
    {
      "bufferView": 3,
      "byteOffset": 602592,
      "componentType": 5126,
      "count": 9588,
      "max": [
        0.99993664026260376,
        0.99992626905441284,
        0.99984723329544067,
        1
      ],
      "min": [
        -0.99979060888290405,
        -0.99994015693664551,
        -0.99984174966812134,
        -1
      ],
      "type": "VEC4"
    },
    {
      "bufferView": 1,
      "byteOffset": 309584,
      "componentType": 5126,
      "count": 9588,
      "max": [
        0.4764220118522644,
        0.9921879768371582
      ],
      "min": [
        0.0078119998797774315,
        0.0078119998797774315
      ],
      "type": "VEC2"
    },
    {
      "bufferView": 0,
      "byteOffset": 747156,
      "componentType": 5125,
      "count": 52704,
      "max": [
        9587
      ],
      "min": [
        0
      ],
      "type": "SCALAR"
    },
    {
      "bufferView": 2,
      "byteOffset": 1158864,
      "componentType": 5126,
      "count": 9367,
      "max": [
        0.084508001804351807,
        0.12117999792098999,
        1.6468100547790527
      ],
      "min": [
        -0.13388699293136597,
        -0.082333996891975403,
        1.0564899444580078
      ],
      "type": "VEC3"
    },
    {
      "bufferView": 2,
      "byteOffset": 1271268,
      "componentType": 5126,
      "count": 9367,
      "max": [
        0.99995589256286621,
        0.99994242191314697,
        0.99911099672317505
      ],
      "min": [
        -0.99998843669891357,
        -0.9999091625213623,
        -0.99906527996063232
      ],
      "type": "VEC3"
    },
    {
      "bufferView": 3,
      "byteOffset": 756000,
      "componentType": 5126,
      "count": 9367,
      "max": [
        0.99994593858718872,
        0.99837005138397217,
        0.99957138299942017,
        1
      ],
      "min": [
        -0.99988818168640137,
        -0.9987989068031311,
        -0.99969488382339478,
        -1
      ],
      "type": "VEC4"
    },
    {
      "bufferView": 1,
      "byteOffset": 386288,
      "componentType": 5126,
      "count": 9367,
      "max": [
        0.4764220118522644,
        0.9921879768371582
      ],
      "min": [
        0.0078119998797774315,
        0.0078119998797774315
      ],
      "type": "VEC2"
    },
    {
      "bufferView": 0,
      "byteOffset": 957972,
      "componentType": 5125,
      "count": 50304,
      "max": [
        9366
      ],
      "min": [
        0
      ],
      "type": "SCALAR"
    },
    {
      "bufferView": 2,
      "byteOffset": 1383672,
      "componentType": 5126,
      "count": 7310,
      "max": [
        0.0556659996509552,
        0.11670699715614319,
        1.6080600023269653
      ],
      "min": [
        -0.12583599984645844,
        -0.098600000143051147,
        1.0722500085830688
      ],
      "type": "VEC3"
    },
    {
      "bufferView": 2,
      "byteOffset": 1471392,
      "componentType": 5126,
      "count": 7310,
      "max": [
        0.9999091625213623,
        0.99992859363555908,
        0.99311596155166626
      ],
      "min": [
        -0.9975208044052124,
        -0.99976223707199097,
        -0.98935872316360474
      ],
      "type": "VEC3"
    },
    {
      "bufferView": 3,
      "byteOffset": 905872,
      "componentType": 5126,
      "count": 7310,
      "max": [
        0.99985384941101074,
        0.99994200468063354,
        0.96121621131896973,
        1
      ],
      "min": [
        -0.99998950958251953,
        -0.99988281726837158,
        -0.99832248687744141,
        -1
      ],
      "type": "VEC4"
    },
    {
      "bufferView": 1,
      "byteOffset": 461224,
      "componentType": 5126,
      "count": 7310,
      "max": [
        0.4764220118522644,
        0.9921879768371582
      ],
      "min": [
        0.0078119998797774315,
        0.0078119998797774315
      ],
      "type": "VEC2"
    },
    {
      "bufferView": 0,
      "byteOffset": 1159188,
      "componentType": 5125,
      "count": 40128,
      "max": [
        7309
      ],
      "min": [
        0
      ],
      "type": "SCALAR"
    },
    {
      "bufferView": 2,
      "byteOffset": 1559112,
      "componentType": 5126,
      "count": 6646,
      "max": [
        0.086942002177238464,
        0.079438000917434692,
        1.6286599636077881
      ],
      "min": [
        -0.056442998349666595,
        -0.09885299950838089,
        1.4635100364685059
      ],
      "type": "VEC3"
    },
    {
      "bufferView": 2,
      "byteOffset": 1638864,
      "componentType": 5126,
      "count": 6646,
      "max": [
        0.99999475479125977,
        0.9999232292175293,
        0.99990963935852051
      ],
      "min": [
        -0.99949353933334351,
        -0.99751365184783936,
        -0.99594080448150635
      ],
      "type": "VEC3"
    },
    {
      "bufferView": 3,
      "byteOffset": 1022832,
      "componentType": 5126,
      "count": 6646,
      "max": [
        0.99969309568405151,
        0.99997562170028687,
        0.9998437762260437,
        1
      ],
      "min": [
        -0.99998605251312256,
        -0.99994957447052002,
        -0.99997931718826294,
        -1
      ],
      "type": "VEC4"
    },
    {
      "bufferView": 1,
      "byteOffset": 519704,
      "componentType": 5126,
      "count": 6646,
      "max": [
        0.98232901096343994,
        1
      ],
      "min": [
        0.51997798681259155,
        0.04050000011920929
      ],
      "type": "VEC2"
    },
    {
      "bufferView": 0,
      "byteOffset": 1319700,
      "componentType": 5125,
      "count": 25074,
      "max": [
        6645
      ],
      "min": [
        0
      ],
      "type": "SCALAR"
    },
    {
      "bufferView": 2,
      "byteOffset": 1718616,
      "componentType": 5126,
      "count": 7993,
      "max": [
        0.33340701460838318,
        0.19009999930858612,
        1.4220700263977051
      ],
      "min": [
        -0.43159100413322449,
        -0.26965999603271484,
        -0.00048799999058246613
      ],
      "type": "VEC3"
    },
    {
      "bufferView": 2,
      "byteOffset": 1814532,
      "componentType": 5126,
      "count": 7993,
      "max": [
        0.99995338916778564,
        0.99879735708236694,
        0.99988985061645508
      ],
      "min": [
        -0.99970215559005737,
        -0.9989209771156311,
        -1
      ],
      "type": "VEC3"
    },
    {
      "bufferView": 3,
      "byteOffset": 1129168,
      "componentType": 5126,
      "count": 7993,
      "max": [
        0.99996024370193481,
        0.99995678663253784,
        0.99926775693893433,
        1
      ],
      "min": [
        -0.99969667196273804,
        -0.99998021125793457,
        -0.99822700023651123,
        -1
      ],
      "type": "VEC4"
    },
    {
      "bufferView": 1,
      "byteOffset": 572872,
      "componentType": 5126,
      "count": 7993,
      "max": [
        0.95600497722625732,
        0.98000001907348633
      ],
      "min": [
        0.019999999552965164,
        0.019999999552965164
      ],
      "type": "VEC2"
    },
    {
      "bufferView": 0,
      "byteOffset": 1419996,
      "componentType": 5125,
      "count": 34404,
      "max": [
        7992
      ],
      "min": [
        0
      ],
      "type": "SCALAR"
    }
  ],
  "asset": {
    "extras": {
      "author": "techykitty (https://sketchfab.com/techykitty)",
      "license": "CC-BY-NC-ND-4.0 (http://creativecommons.org/licenses/by-nc-nd/4.0/)",
      "source": "https://sketchfab.com/3d-models/sniper-b59f3a80ae994c7a84c0e695bd7a2daf",
      "title": "Sniper"
    },
    "generator": "Sketchfab-8.61.0",
    "version": "2.0"
  },
  "bufferViews": [
    {
      "buffer": 0,
      "byteLength": 1557612,
      "byteOffset": 0,
      "name": "floatBufferViews",
      "target": 34963
    },
    {
      "buffer": 0,
      "byteLength": 636816,
      "byteOffset": 1557612,
      "byteStride": 8,
      "name": "floatBufferViews",
      "target": 34962
    },
    {
      "buffer": 0,
      "byteLength": 1910448,
      "byteOffset": 2194428,
      "byteStride": 12,
      "name": "floatBufferViews",
      "target": 34962
    },
    {
      "buffer": 0,
      "byteLength": 1257056,
      "byteOffset": 4104876,
      "byteStride": 16,
      "name": "floatBufferViews",
      "target": 34962
    }
  ],
  "buffers": [
    {
      "byteLength": 5361932,
      "uri": "scene.bin"
    }
  ],
  "images": [
    {
      "uri": "textures/Body_baseColor.png"
    },
    {
      "uri": "textures/Body_metallicRoughness.png"
    },
    {
      "uri": "textures/Body_normal.png"
    },
    {
      "uri": "textures/BraidEyelash_baseColor.png"
    },
    {
      "uri": "textures/BraidEyelash_normal.png"
    },
    {
      "uri": "textures/CostumeShoes_baseColor.png"
    },
    {
      "uri": "textures/CostumeShoes_metallicRoughness.png"
    },
    {
      "uri": "textures/CostumeShoes_normal.png"
    },
    {
      "uri": "textures/Eyeball_baseColor.png"
    },
    {
      "uri": "textures/MachineGun_baseColor.png"
    },
    {
      "uri": "textures/MachineGun_metallicRoughness.png"
    },
    {
      "uri": "textures/MachineGun_normal.png"
    }
  ],
  "materials": [
    {
      "doubleSided": false,
      "name": "Body",
      "normalTexture": {
        "index": 2,
        "scale": 1,
        "texCoord": 0
      },
      "pbrMetallicRoughness": {
        "baseColorFactor": [
          1,
          1,
          1,
          1
        ],
        "baseColorTexture": {
          "index": 0,
          "texCoord": 0
        },
        "metallicFactor": 0,
        "metallicRoughnessTexture": {
          "index": 1,
          "texCoord": 0
        },
        "roughnessFactor": 1
      }
    },
    {
      "alphaMode": "BLEND",
      "doubleSided": true,
      "name": "BraidEyelash",
      "normalTexture": {
        "index": 4,
        "scale": 1,
        "texCoord": 0
      },
      "pbrMetallicRoughness": {
        "baseColorFactor": [
          1,
          1,
          1,
          1
        ],
        "baseColorTexture": {
          "index": 3,
          "texCoord": 0
        },
        "metallicFactor": 0,
        "roughnessFactor": 0.5
      }
    },
    {
      "doubleSided": true,
      "name": "CostumeShoes",
      "normalTexture": {
        "index": 7,
        "scale": 1,
        "texCoord": 0
      },
      "pbrMetallicRoughness": {
        "baseColorFactor": [
          1,
          1,
          1,
          1
        ],
        "baseColorTexture": {
          "index": 5,
          "texCoord": 0
        },
        "metallicFactor": 0,
        "metallicRoughnessTexture": {
          "index": 6,
          "texCoord": 0
        },
        "roughnessFactor": 1
      }
    },
    {
      "doubleSided": false,
      "name": "Eyeball",
      "pbrMetallicRoughness": {
        "baseColorFactor": [
          1,
          1,
          1,
          1
        ],
        "baseColorTexture": {
          "index": 8,
          "texCoord": 0
        },
        "metallicFactor": 0,
        "roughnessFactor": 0.099999999999999978
      }
    },
    {
      "doubleSided": false,
      "name": "MachineGun",
      "normalTexture": {
        "index": 11,
        "scale": 1,
        "texCoord": 0
      },
      "pbrMetallicRoughness": {
        "baseColorFactor": [
          1,
          1,
          1,
          1
        ],
        "baseColorTexture": {
          "index": 9,
          "texCoord": 0
        },
        "metallicFactor": 0,
        "metallicRoughnessTexture": {
          "index": 10,
          "texCoord": 0
        },
        "roughnessFactor": 1
      }
    },
    {
      "alphaMode": "BLEND",
      "doubleSided": true,
      "name": "MachineGunScopeLens",
      "pbrMetallicRoughness": {
        "baseColorFactor": [
          0.050351434008840575,
          0.050351434008840575,
          0.050351434008840575,
          0.01
        ],
        "metallicFactor": 0,
        "roughnessFactor": 0.12
      }
    }
  ],
  "meshes": [
    {
      "primitives": [
        {
          "attributes": {
            "NORMAL": 1,
            "POSITION": 0,
            "TANGENT": 2,
            "TEXCOORD_0": 3
          },
          "indices": 4,
          "material": 0,
          "mode": 4
        }
      ]
    },
    {
      "primitives": [
        {
          "attributes": {
            "NORMAL": 6,
            "POSITION": 5,
            "TEXCOORD_0": 7
          },
          "indices": 8,
          "material": 3,
          "mode": 4
        }
      ]
    },
    {
      "primitives": [
        {
          "attributes": {
            "NORMAL": 10,
            "POSITION": 9,
            "TANGENT": 11,
            "TEXCOORD_0": 12
          },
          "indices": 13,
          "material": 4,
          "mode": 4
        }
      ]
    },
    {
      "primitives": [
        {
          "attributes": {
            "NORMAL": 15,
            "POSITION": 14,
            "TEXCOORD_0": 16
          },
          "indices": 17,
          "material": 5,
          "mode": 4
        }
      ]
    },
    {
      "primitives": [
        {
          "attributes": {
            "NORMAL": 19,
            "POSITION": 18,
            "TANGENT": 20,
            "TEXCOORD_0": 21
          },
          "indices": 22,
          "material": 1,
          "mode": 4
        }
      ]
    },
    {
      "primitives": [
        {
          "attributes": {
            "NORMAL": 24,
            "POSITION": 23,
            "TANGENT": 25,
            "TEXCOORD_0": 26
          },
          "indices": 27,
          "material": 1,
          "mode": 4
        }
      ]
    },
    {
      "primitives": [
        {
          "attributes": {
            "NORMAL": 29,
            "POSITION": 28,
            "TANGENT": 30,
            "TEXCOORD_0": 31
          },
          "indices": 32,
          "material": 1,
          "mode": 4
        }
      ]
    },
    {
      "primitives": [
        {
          "attributes": {
            "NORMAL": 34,
            "POSITION": 33,
            "TANGENT": 35,
            "TEXCOORD_0": 36
          },
          "indices": 37,
          "material": 1,
          "mode": 4
        }
      ]
    },
    {
      "primitives": [
        {
          "attributes": {
            "NORMAL": 39,
            "POSITION": 38,
            "TANGENT": 40,
            "TEXCOORD_0": 41
          },
          "indices": 42,
          "material": 1,
          "mode": 4
        }
      ]
    },
    {
      "primitives": [
        {
          "attributes": {
            "NORMAL": 44,
            "POSITION": 43,
            "TANGENT": 45,
            "TEXCOORD_0": 46
          },
          "indices": 47,
          "material": 2,
          "mode": 4
        }
      ]
    }
  ],
  "nodes": [
    {
      "children": [
        1
      ],
      "name": "RootNode (gltf orientation matrix)",
      "rotation": [
        -0.70710678118654746,
        -0,
        -0,
        0.70710678118654757
      ]
    },
    {
      "children": [
        2
      ],
      "name": "RootNode (model correction matrix)"
    },
    {
      "children": [
        3,
        4,
        5,
        6,
        7,
        8,
        9,
        10,
        11,
        12
      ],
      "name": "Sniper_techykitty.obj.cleaner.materialmerger.gles"
    },
    {
      "mesh": 0,
      "name": ""
    },
    {
      "mesh": 1,
      "name": ""
    },
    {
      "mesh": 2,
      "name": ""
    },
    {
      "mesh": 3,
      "name": ""
    },
    {
      "mesh": 4,
      "name": ""
    },
    {
      "mesh": 5,
      "name": ""
    },
    {
      "mesh": 6,
      "name": ""
    },
    {
      "mesh": 7,
      "name": ""
    },
    {
      "mesh": 8,
      "name": ""
    },
    {
      "mesh": 9,
      "name": ""
    }
  ],
  "samplers": [
    {
      "magFilter": 9729,
      "minFilter": 9987,
      "wrapS": 10497,
      "wrapT": 10497
    }
  ],
  "scene": 0,
  "scenes": [
    {
      "name": "OSG_Scene",
      "nodes": [
        0
      ]
    }
  ],
  "textures": [
    {
      "sampler": 0,
      "source": 0
    },
    {
      "sampler": 0,
      "source": 1
    },
    {
      "sampler": 0,
      "source": 2
    },
    {
      "sampler": 0,
      "source": 3
    },
    {
      "sampler": 0,
      "source": 4
    },
    {
      "sampler": 0,
      "source": 5
    },
    {
      "sampler": 0,
      "source": 6
    },
    {
      "sampler": 0,
      "source": 7
    },
    {
      "sampler": 0,
      "source": 8
    },
    {
      "sampler": 0,
      "source": 9
    },
    {
      "sampler": 0,
      "source": 10
    },
    {
      "sampler": 0,
      "source": 11
    }
  ]
}

